STARTFONT 2.1
COMMENT "Modified to improve consistency and readability by Don Stokes"
COMMENT "from example 5x10.bdf at"
COMMENT "http://chem.skku.ac.kr/~wkpark/project/webfed/trash/bdftofon/5x10.bdf"
FONT -Gnu-Fixed-Medium-R-Normal--9-100-75-75-C-50-ISO8859-1
SIZE 9 75 75
FONTBOUNDINGBOX 5 9 0 -1
STARTPROPERTIES 25
RESOLUTION 103
FAMILY_NAME "Fixed"
SPACING "C"
COPYRIGHT "Public domain font.  Share and enjoy."
RESOLUTION_X 75
RESOLUTION_Y 75
ADD_STYLE_NAME ""
WEIGHT 10
SLANT "R"
DEFAULT_CHAR 0
AVERAGE_WIDTH 50
PIXEL_SIZE 8
QUAD_WIDTH 5
CHARSET_REGISTRY "ISO8859"
X_HEIGHT 4
FONTNAME_REGISTRY ""
CHARSET_ENCODING 1
SETWIDTH_NAME "Normal"
WEIGHT_NAME "Medium"
FONT_ASCENT 8
FONT_DESCENT 1
CAP_HEIGHT 6
POINT_SIZE 100
FONT "-Gnu-Fixed-Medium-R-Normal--9-100-75-75-C-50-ISO8859-1"
FOUNDRY "Gnu"
ENDPROPERTIES
CHARS 223
STARTCHAR 0000
ENCODING 0
SWIDTH 600 0
DWIDTH 5 0
BBX 5 9 0 -1
BITMAP
00
a8
00
88
00
88
00
a8
00
ENDCHAR
STARTCHAR 0001
ENCODING 1
SWIDTH 600 0
DWIDTH 5 0
BBX 5 9 0 -1
BITMAP
00
00
20
70
f8
70
20
00
00
ENDCHAR
STARTCHAR 0002
ENCODING 2
SWIDTH 600 0
DWIDTH 5 0
BBX 5 9 0 -1
BITMAP
a8
50
a8
50
a8
50
a8
50
a8
ENDCHAR
STARTCHAR 0003
ENCODING 3
SWIDTH 600 0
DWIDTH 5 0
BBX 5 9 0 -1
BITMAP
a0
a0
e0
a0
a0
70
20
20
20
ENDCHAR
STARTCHAR 0004
ENCODING 4
SWIDTH 600 0
DWIDTH 5 0
BBX 5 9 0 -1
BITMAP
e0
80
c0
b8
a0
30
20
20
00
ENDCHAR
STARTCHAR 0005
ENCODING 5
SWIDTH 600 0
DWIDTH 5 0
BBX 5 9 0 -1
BITMAP
60
80
80
60
30
28
30
28
00
ENDCHAR
STARTCHAR 0006
ENCODING 6
SWIDTH 600 0
DWIDTH 5 0
BBX 5 9 0 -1
BITMAP
80
80
80
e0
38
20
30
20
00
ENDCHAR
STARTCHAR 0007
ENCODING 7
SWIDTH 600 0
DWIDTH 5 0
BBX 5 9 0 -1
BITMAP
00
20
50
20
00
00
00
00
00
ENDCHAR
STARTCHAR 0008
ENCODING 8
SWIDTH 600 0
DWIDTH 5 0
BBX 5 9 0 -1
BITMAP
00
00
20
70
20
00
70
00
00
ENDCHAR
STARTCHAR 0009
ENCODING 9
SWIDTH 600 0
DWIDTH 5 0
BBX 5 9 0 -1
BITMAP
90
d0
b0
90
20
20
20
38
00
ENDCHAR
STARTCHAR 000A
ENCODING 10
SWIDTH 600 0
DWIDTH 5 0
BBX 5 9 0 -1
BITMAP
a0
a0
a0
40
38
10
10
10
00
ENDCHAR
STARTCHAR 000B
ENCODING 11
SWIDTH 600 0
DWIDTH 5 0
BBX 5 9 0 -1
BITMAP
20
20
20
20
e0
00
00
00
00
ENDCHAR
STARTCHAR 000C
ENCODING 12
SWIDTH 600 0
DWIDTH 5 0
BBX 5 9 0 -1
BITMAP
00
00
00
00
e0
20
20
20
20
ENDCHAR
STARTCHAR 000D
ENCODING 13
SWIDTH 600 0
DWIDTH 5 0
BBX 5 9 0 -1
BITMAP
00
00
00
00
38
20
20
20
20
ENDCHAR
STARTCHAR 000E
ENCODING 14
SWIDTH 600 0
DWIDTH 5 0
BBX 5 9 0 -1
BITMAP
20
20
20
20
38
00
00
00
00
ENDCHAR
STARTCHAR 000F
ENCODING 15
SWIDTH 600 0
DWIDTH 5 0
BBX 5 9 0 -1
BITMAP
20
20
20
20
f8
20
20
20
20
ENDCHAR
STARTCHAR 000F
ENCODING 16
SWIDTH 600 0
DWIDTH 5 0
BBX 5 9 0 -1
BITMAP
f8
00
00
00
00
00
00
00
00
ENDCHAR
STARTCHAR 000F
ENCODING 17
SWIDTH 600 0
DWIDTH 5 0
BBX 5 9 0 -1
BITMAP
00
00
f8
00
00
00
00
00
00
ENDCHAR
STARTCHAR 0010
ENCODING 18
SWIDTH 600 0
DWIDTH 5 0
BBX 5 9 0 -1
BITMAP
00
00
00
00
f8
00
00
00
00
ENDCHAR
STARTCHAR 000F
ENCODING 19
SWIDTH 600 0
DWIDTH 5 0
BBX 5 9 0 -1
BITMAP
00
00
00
00
00
00
f8
00
00
ENDCHAR
STARTCHAR 000F
ENCODING 20
SWIDTH 600 0
DWIDTH 5 0
BBX 5 9 0 -1
BITMAP
00
00
00
00
00
00
00
00
f8
ENDCHAR
STARTCHAR 0011
ENCODING 21
SWIDTH 600 0
DWIDTH 5 0
BBX 5 9 0 -1
BITMAP
20
20
20
20
38
20
20
20
20
ENDCHAR
STARTCHAR 0012
ENCODING 22
SWIDTH 600 0
DWIDTH 5 0
BBX 5 9 0 -1
BITMAP
20
20
20
20
e0
20
20
20
20
ENDCHAR
STARTCHAR 0013
ENCODING 23
SWIDTH 600 0
DWIDTH 5 0
BBX 5 9 0 -1
BITMAP
20
20
20
20
f8
00
00
00
00
ENDCHAR
STARTCHAR 0014
ENCODING 24
SWIDTH 600 0
DWIDTH 5 0
BBX 5 9 0 -1
BITMAP
00
00
00
00
f8
20
20
20
20
ENDCHAR
STARTCHAR 0015
ENCODING 25
SWIDTH 600 0
DWIDTH 5 0
BBX 5 9 0 -1
BITMAP
20
20
20
20
20
20
20
20
20
ENDCHAR
STARTCHAR 0016
ENCODING 26
SWIDTH 600 0
DWIDTH 5 0
BBX 5 9 0 -1
BITMAP
00
00
10
20
40
20
10
70
00
ENDCHAR
STARTCHAR 0017
ENCODING 27
SWIDTH 600 0
DWIDTH 5 0
BBX 5 9 0 -1
BITMAP
00
00
40
20
10
20
40
70
00
ENDCHAR
STARTCHAR 0018
ENCODING 28
SWIDTH 600 0
DWIDTH 5 0
BBX 5 9 0 -1
BITMAP
00
00
00
00
f8
50
50
50
00
ENDCHAR
STARTCHAR 0019
ENCODING 29
SWIDTH 600 0
DWIDTH 5 0
BBX 5 9 0 -1
BITMAP
00
00
00
20
f0
60
f0
40
00
ENDCHAR
STARTCHAR 001A
ENCODING 30
SWIDTH 600 0
DWIDTH 5 0
BBX 5 9 0 -1
BITMAP
00
20
50
40
e0
40
40
b0
00
ENDCHAR
STARTCHAR 001B
ENCODING 31
SWIDTH 600 0
DWIDTH 5 0
BBX 5 9 0 -1
BITMAP
00
00
00
00
00
20
00
00
00
ENDCHAR
STARTCHAR 001C
ENCODING 32
SWIDTH 600 0
DWIDTH 5 0
BBX 5 9 0 -1
BITMAP
00
00
00
00
00
00
00
00
00
ENDCHAR
STARTCHAR 001D
ENCODING 33
SWIDTH 600 0
DWIDTH 5 0
BBX 5 9 0 -1
BITMAP
00
20
20
20
20
20
00
20
00
ENDCHAR
STARTCHAR 001E
ENCODING 34
SWIDTH 600 0
DWIDTH 5 0
BBX 5 9 0 -1
BITMAP
00
50
50
50
00
00
00
00
00
ENDCHAR
STARTCHAR 001F
ENCODING 35
SWIDTH 600 0
DWIDTH 5 0
BBX 5 9 0 -1
BITMAP
00
50
50
f8
50
f8
50
50
00
ENDCHAR
STARTCHAR 0020
ENCODING 36
SWIDTH 600 0
DWIDTH 5 0
BBX 5 9 0 -1
BITMAP
00
20
70
a0
70
28
70
20
00
ENDCHAR
STARTCHAR 0021
ENCODING 37
SWIDTH 600 0
DWIDTH 5 0
BBX 5 9 0 -1
BITMAP
00
40
a0
50
20
40
a0
50
20
ENDCHAR
STARTCHAR 0022
ENCODING 38
SWIDTH 600 0
DWIDTH 5 0
BBX 5 9 0 -1
BITMAP
00
40
a0
40
d0
a0
a0
50
00
ENDCHAR
STARTCHAR 0023
ENCODING 39
SWIDTH 600 0
DWIDTH 5 0
BBX 5 9 0 -1
BITMAP
00
20
20
40
00
00
00
00
00
ENDCHAR
STARTCHAR 0024
ENCODING 40
SWIDTH 600 0
DWIDTH 5 0
BBX 5 9 0 -1
BITMAP
10
20
40
40
40
40
40
20
10
ENDCHAR
STARTCHAR 0025
ENCODING 41
SWIDTH 600 0
DWIDTH 5 0
BBX 5 9 0 -1
BITMAP
80
40
20
20
20
20
20
40
80
ENDCHAR
STARTCHAR 0026
ENCODING 42
SWIDTH 600 0
DWIDTH 5 0
BBX 5 9 0 -1
BITMAP
00
00
90
60
f0
60
90
00
00
ENDCHAR
STARTCHAR 0027
ENCODING 43
SWIDTH 600 0
DWIDTH 5 0
BBX 5 9 0 -1
BITMAP
00
00
20
20
f8
20
20
00
00
ENDCHAR
STARTCHAR 0028
ENCODING 44
SWIDTH 600 0
DWIDTH 5 0
BBX 5 9 0 -1
BITMAP
00
00
00
00
00
00
30
20
40
ENDCHAR
STARTCHAR 0029
ENCODING 45
SWIDTH 600 0
DWIDTH 5 0
BBX 5 9 0 -1
BITMAP
00
00
00
00
f0
00
00
00
00
ENDCHAR
STARTCHAR 002A
ENCODING 46
SWIDTH 600 0
DWIDTH 5 0
BBX 5 9 0 -1
BITMAP
00
00
00
00
00
00
60
60
00
ENDCHAR
STARTCHAR 002B
ENCODING 47
SWIDTH 600 0
DWIDTH 5 0
BBX 5 9 0 -1
BITMAP
00
10
10
20
20
40
40
80
80
ENDCHAR
STARTCHAR 002C
ENCODING 48
SWIDTH 600 0
DWIDTH 5 0
BBX 5 9 0 -1
BITMAP
00
60
60
90
90
90
60
60
00
ENDCHAR
STARTCHAR 002D
ENCODING 49
SWIDTH 600 0
DWIDTH 5 0
BBX 5 9 0 -1
BITMAP
00
20
60
a0
20
20
20
f0
00
ENDCHAR
STARTCHAR 002E
ENCODING 50
SWIDTH 600 0
DWIDTH 5 0
BBX 5 9 0 -1
BITMAP
00
60
90
10
60
80
80
f0
00
ENDCHAR
STARTCHAR 002F
ENCODING 51
SWIDTH 600 0
DWIDTH 5 0
BBX 5 9 0 -1
BITMAP
00
60
90
10
60
10
90
60
00
ENDCHAR
STARTCHAR 0030
ENCODING 52
SWIDTH 600 0
DWIDTH 5 0
BBX 5 9 0 -1
BITMAP
00
20
60
60
a0
f0
20
20
00
ENDCHAR
STARTCHAR 0031
ENCODING 53
SWIDTH 600 0
DWIDTH 5 0
BBX 5 9 0 -1
BITMAP
00
f0
80
e0
10
10
90
60
00
ENDCHAR
STARTCHAR 0032
ENCODING 54
SWIDTH 600 0
DWIDTH 5 0
BBX 5 9 0 -1
BITMAP
00
70
80
e0
90
90
90
60
00
ENDCHAR
STARTCHAR 0033
ENCODING 55
SWIDTH 600 0
DWIDTH 5 0
BBX 5 9 0 -1
BITMAP
00
f0
10
20
20
40
40
40
00
ENDCHAR
STARTCHAR 0034
ENCODING 56
SWIDTH 600 0
DWIDTH 5 0
BBX 5 9 0 -1
BITMAP
00
60
90
90
60
90
90
60
00
ENDCHAR
STARTCHAR 0035
ENCODING 57
SWIDTH 600 0
DWIDTH 5 0
BBX 5 9 0 -1
BITMAP
00
60
90
90
90
70
10
e0
00
ENDCHAR
STARTCHAR 0036
ENCODING 58
SWIDTH 600 0
DWIDTH 5 0
BBX 5 9 0 -1
BITMAP
00
00
00
60
60
00
60
60
00
ENDCHAR
STARTCHAR 0037
ENCODING 59
SWIDTH 600 0
DWIDTH 5 0
BBX 5 9 0 -1
BITMAP
00
00
00
30
30
00
30
20
40
ENDCHAR
STARTCHAR 0038
ENCODING 60
SWIDTH 600 0
DWIDTH 5 0
BBX 5 9 0 -1
BITMAP
00
10
20
40
80
40
20
10
00
ENDCHAR
STARTCHAR 0039
ENCODING 61
SWIDTH 600 0
DWIDTH 5 0
BBX 5 9 0 -1
BITMAP
00
00
00
f0
00
00
f0
00
00
ENDCHAR
STARTCHAR 003A
ENCODING 62
SWIDTH 600 0
DWIDTH 5 0
BBX 5 9 0 -1
BITMAP
00
80
40
20
10
20
40
80
00
ENDCHAR
STARTCHAR 003B
ENCODING 63
SWIDTH 600 0
DWIDTH 5 0
BBX 5 9 0 -1
BITMAP
00
60
90
10
20
40
00
40
00
ENDCHAR
STARTCHAR 003C
ENCODING 64
SWIDTH 600 0
DWIDTH 5 0
BBX 5 9 0 -1
BITMAP
00
60
90
b0
b0
b0
80
60
00
ENDCHAR
STARTCHAR 003D
ENCODING 65
SWIDTH 600 0
DWIDTH 5 0
BBX 5 9 0 -1
BITMAP
00
60
90
90
f0
90
90
90
00
ENDCHAR
STARTCHAR 003E
ENCODING 66
SWIDTH 600 0
DWIDTH 5 0
BBX 5 9 0 -1
BITMAP
00
e0
90
90
e0
90
90
e0
00
ENDCHAR
STARTCHAR 003F
ENCODING 67
SWIDTH 600 0
DWIDTH 5 0
BBX 5 9 0 -1
BITMAP
00
60
90
80
80
80
90
60
00
ENDCHAR
STARTCHAR 0040
ENCODING 68
SWIDTH 600 0
DWIDTH 5 0
BBX 5 9 0 -1
BITMAP
00
e0
90
90
90
90
90
e0
00
ENDCHAR
STARTCHAR 0041
ENCODING 69
SWIDTH 600 0
DWIDTH 5 0
BBX 5 9 0 -1
BITMAP
00
f0
80
80
e0
80
80
f0
00
ENDCHAR
STARTCHAR 0042
ENCODING 70
SWIDTH 600 0
DWIDTH 5 0
BBX 5 9 0 -1
BITMAP
00
f0
80
80
e0
80
80
80
00
ENDCHAR
STARTCHAR 0043
ENCODING 71
SWIDTH 600 0
DWIDTH 5 0
BBX 5 9 0 -1
BITMAP
00
60
90
80
b0
90
90
70
00
ENDCHAR
STARTCHAR 0044
ENCODING 72
SWIDTH 600 0
DWIDTH 5 0
BBX 5 9 0 -1
BITMAP
00
90
90
90
f0
90
90
90
00
ENDCHAR
STARTCHAR 0045
ENCODING 73
SWIDTH 600 0
DWIDTH 5 0
BBX 5 9 0 -1
BITMAP
00
70
20
20
20
20
20
70
00
ENDCHAR
STARTCHAR 0046
ENCODING 74
SWIDTH 600 0
DWIDTH 5 0
BBX 5 9 0 -1
BITMAP
00
30
10
10
10
90
90
60
00
ENDCHAR
STARTCHAR 0047
ENCODING 75
SWIDTH 600 0
DWIDTH 5 0
BBX 5 9 0 -1
BITMAP
00
90
90
a0
c0
a0
90
90
00
ENDCHAR
STARTCHAR 0048
ENCODING 76
SWIDTH 600 0
DWIDTH 5 0
BBX 5 9 0 -1
BITMAP
00
80
80
80
80
80
80
f0
00
ENDCHAR
STARTCHAR 0049
ENCODING 77
SWIDTH 600 0
DWIDTH 5 0
BBX 5 9 0 -1
BITMAP
00
88
d8
a8
a8
a8
88
88
00
ENDCHAR
STARTCHAR 004A
ENCODING 78
SWIDTH 600 0
DWIDTH 5 0
BBX 5 9 0 -1
BITMAP
00
90
d0
d0
b0
b0
90
90
00
ENDCHAR
STARTCHAR 004B
ENCODING 79
SWIDTH 600 0
DWIDTH 5 0
BBX 5 9 0 -1
BITMAP
00
60
90
90
90
90
90
60
00
ENDCHAR
STARTCHAR 004C
ENCODING 80
SWIDTH 600 0
DWIDTH 5 0
BBX 5 9 0 -1
BITMAP
00
e0
90
90
e0
80
80
80
00
ENDCHAR
STARTCHAR 004D
ENCODING 81
SWIDTH 600 0
DWIDTH 5 0
BBX 5 9 0 -1
BITMAP
00
60
90
90
90
d0
b0
60
10
ENDCHAR
STARTCHAR 004E
ENCODING 82
SWIDTH 600 0
DWIDTH 5 0
BBX 5 9 0 -1
BITMAP
00
e0
90
90
e0
90
90
90
00
ENDCHAR
STARTCHAR 004F
ENCODING 83
SWIDTH 600 0
DWIDTH 5 0
BBX 5 9 0 -1
BITMAP
00
60
90
80
60
10
90
60
00
ENDCHAR
STARTCHAR 0050
ENCODING 84
SWIDTH 600 0
DWIDTH 5 0
BBX 5 9 0 -1
BITMAP
00
f8
20
20
20
20
20
20
00
ENDCHAR
STARTCHAR 0051
ENCODING 85
SWIDTH 600 0
DWIDTH 5 0
BBX 5 9 0 -1
BITMAP
00
90
90
90
90
90
90
60
00
ENDCHAR
STARTCHAR 0052
ENCODING 86
SWIDTH 600 0
DWIDTH 5 0
BBX 5 9 0 -1
BITMAP
00
90
90
90
90
60
60
60
00
ENDCHAR
STARTCHAR 0053
ENCODING 87
SWIDTH 600 0
DWIDTH 5 0
BBX 5 9 0 -1
BITMAP
00
88
88
88
a8
a8
a8
50
00
ENDCHAR
STARTCHAR 0054
ENCODING 88
SWIDTH 600 0
DWIDTH 5 0
BBX 5 9 0 -1
BITMAP
00
90
90
60
60
90
90
90
00
ENDCHAR
STARTCHAR 0055
ENCODING 89
SWIDTH 600 0
DWIDTH 5 0
BBX 5 9 0 -1
BITMAP
00
88
88
50
20
20
20
20
00
ENDCHAR
STARTCHAR 0056
ENCODING 90
SWIDTH 600 0
DWIDTH 5 0
BBX 5 9 0 -1
BITMAP
00
f0
10
20
40
80
80
f0
00
ENDCHAR
STARTCHAR 0057
ENCODING 91
SWIDTH 600 0
DWIDTH 5 0
BBX 5 9 0 -1
BITMAP
70
40
40
40
40
40
40
40
70
ENDCHAR
STARTCHAR 0058
ENCODING 92
SWIDTH 600 0
DWIDTH 5 0
BBX 5 9 0 -1
BITMAP
00
80
80
40
40
20
20
10
10
ENDCHAR
STARTCHAR 0059
ENCODING 93
SWIDTH 600 0
DWIDTH 5 0
BBX 5 9 0 -1
BITMAP
e0
20
20
20
20
20
20
20
e0
ENDCHAR
STARTCHAR 005A
ENCODING 94
SWIDTH 600 0
DWIDTH 5 0
BBX 5 9 0 -1
BITMAP
00
60
90
00
00
00
00
00
00
ENDCHAR
STARTCHAR 005B
ENCODING 95
SWIDTH 600 0
DWIDTH 5 0
BBX 5 9 0 -1
BITMAP
00
00
00
00
00
00
00
00
f0
ENDCHAR
STARTCHAR 005C
ENCODING 96
SWIDTH 600 0
DWIDTH 5 0
BBX 5 9 0 -1
BITMAP
00
40
40
20
00
00
00
00
00
ENDCHAR
STARTCHAR 005D
ENCODING 97
SWIDTH 600 0
DWIDTH 5 0
BBX 5 9 0 -1
BITMAP
00
00
00
60
10
70
90
70
00
ENDCHAR
STARTCHAR 005E
ENCODING 98
SWIDTH 600 0
DWIDTH 5 0
BBX 5 9 0 -1
BITMAP
00
80
80
e0
90
90
90
e0
00
ENDCHAR
STARTCHAR 005F
ENCODING 99
SWIDTH 600 0
DWIDTH 5 0
BBX 5 9 0 -1
BITMAP
00
00
00
60
90
80
90
60
00
ENDCHAR
STARTCHAR 0060
ENCODING 100
SWIDTH 600 0
DWIDTH 5 0
BBX 5 9 0 -1
BITMAP
00
10
10
70
90
90
90
70
00
ENDCHAR
STARTCHAR 0061
ENCODING 101
SWIDTH 600 0
DWIDTH 5 0
BBX 5 9 0 -1
BITMAP
00
00
00
60
90
f0
80
60
00
ENDCHAR
STARTCHAR 0062
ENCODING 102
SWIDTH 600 0
DWIDTH 5 0
BBX 5 9 0 -1
BITMAP
00
30
40
40
f0
40
40
40
00
ENDCHAR
STARTCHAR 0063
ENCODING 103
SWIDTH 600 0
DWIDTH 5 0
BBX 5 9 0 -1
BITMAP
00
00
00
70
90
90
70
10
60
ENDCHAR
STARTCHAR 0064
ENCODING 104
SWIDTH 600 0
DWIDTH 5 0
BBX 5 9 0 -1
BITMAP
00
80
80
e0
90
90
90
90
00
ENDCHAR
STARTCHAR 0065
ENCODING 105
SWIDTH 600 0
DWIDTH 5 0
BBX 5 9 0 -1
BITMAP
00
20
00
60
20
20
20
70
00
ENDCHAR
STARTCHAR 0066
ENCODING 106
SWIDTH 600 0
DWIDTH 5 0
BBX 5 9 0 -1
BITMAP
00
10
00
70
10
10
10
90
60
ENDCHAR
STARTCHAR 0067
ENCODING 107
SWIDTH 600 0
DWIDTH 5 0
BBX 5 9 0 -1
BITMAP
00
80
80
90
a0
c0
a0
90
00
ENDCHAR
STARTCHAR 0068
ENCODING 108
SWIDTH 600 0
DWIDTH 5 0
BBX 5 9 0 -1
BITMAP
00
60
20
20
20
20
20
70
00
ENDCHAR
STARTCHAR 0069
ENCODING 109
SWIDTH 600 0
DWIDTH 5 0
BBX 5 9 0 -1
BITMAP
00
00
00
d0
a8
a8
a8
88
00
ENDCHAR
STARTCHAR 006A
ENCODING 110
SWIDTH 600 0
DWIDTH 5 0
BBX 5 9 0 -1
BITMAP
00
00
00
e0
90
90
90
90
00
ENDCHAR
STARTCHAR 006B
ENCODING 111
SWIDTH 600 0
DWIDTH 5 0
BBX 5 9 0 -1
BITMAP
00
00
00
60
90
90
90
60
00
ENDCHAR
STARTCHAR 006C
ENCODING 112
SWIDTH 600 0
DWIDTH 5 0
BBX 5 9 0 -1
BITMAP
00
00
00
e0
90
90
e0
80
80
ENDCHAR
STARTCHAR 006D
ENCODING 113
SWIDTH 600 0
DWIDTH 5 0
BBX 5 9 0 -1
BITMAP
00
00
00
70
90
90
70
10
10
ENDCHAR
STARTCHAR 006E
ENCODING 114
SWIDTH 600 0
DWIDTH 5 0
BBX 5 9 0 -1
BITMAP
00
00
00
e0
90
80
80
80
00
ENDCHAR
STARTCHAR 006F
ENCODING 115
SWIDTH 600 0
DWIDTH 5 0
BBX 5 9 0 -1
BITMAP
00
00
00
70
80
60
10
e0
00
ENDCHAR
STARTCHAR 0070
ENCODING 116
SWIDTH 600 0
DWIDTH 5 0
BBX 5 9 0 -1
BITMAP
00
40
40
f0
40
40
40
30
00
ENDCHAR
STARTCHAR 0071
ENCODING 117
SWIDTH 600 0
DWIDTH 5 0
BBX 5 9 0 -1
BITMAP
00
00
00
90
90
90
90
70
00
ENDCHAR
STARTCHAR 0072
ENCODING 118
SWIDTH 600 0
DWIDTH 5 0
BBX 5 9 0 -1
BITMAP
00
00
00
90
90
90
60
60
00
ENDCHAR
STARTCHAR 0073
ENCODING 119
SWIDTH 600 0
DWIDTH 5 0
BBX 5 9 0 -1
BITMAP
00
00
00
88
88
a8
a8
50
00
ENDCHAR
STARTCHAR 0074
ENCODING 120
SWIDTH 600 0
DWIDTH 5 0
BBX 5 9 0 -1
BITMAP
00
00
00
90
60
60
90
90
00
ENDCHAR
STARTCHAR 0075
ENCODING 121
SWIDTH 600 0
DWIDTH 5 0
BBX 5 9 0 -1
BITMAP
00
00
00
90
90
90
70
10
e0
ENDCHAR
STARTCHAR 0076
ENCODING 122
SWIDTH 600 0
DWIDTH 5 0
BBX 5 9 0 -1
BITMAP
00
00
00
f0
20
40
80
f0
00
ENDCHAR
STARTCHAR 0077
ENCODING 123
SWIDTH 600 0
DWIDTH 5 0
BBX 5 9 0 -1
BITMAP
30
40
40
20
c0
20
40
40
30
ENDCHAR
STARTCHAR 0078
ENCODING 124
SWIDTH 600 0
DWIDTH 5 0
BBX 5 9 0 -1
BITMAP
20
20
20
20
20
20
20
20
20
ENDCHAR
STARTCHAR 0079
ENCODING 125
SWIDTH 600 0
DWIDTH 5 0
BBX 5 9 0 -1
BITMAP
c0
20
20
40
30
40
20
20
c0
ENDCHAR
STARTCHAR 007A
ENCODING 126
SWIDTH 600 0
DWIDTH 5 0
BBX 5 9 0 -1
BITMAP
00
50
f0
a0
00
00
00
00
00
ENDCHAR
STARTCHAR 007B
ENCODING 160
SWIDTH 600 0
DWIDTH 5 0
BBX 5 9 0 -1
BITMAP
00
00
00
00
00
00
00
00
00
ENDCHAR
STARTCHAR 007C
ENCODING 161
SWIDTH 600 0
DWIDTH 5 0
BBX 5 9 0 -1
BITMAP
00
20
00
20
20
20
20
20
00
ENDCHAR
STARTCHAR 007D
ENCODING 162
SWIDTH 600 0
DWIDTH 5 0
BBX 5 9 0 -1
BITMAP
00
00
20
70
a0
a0
a0
70
20
ENDCHAR
STARTCHAR 007E
ENCODING 163
SWIDTH 600 0
DWIDTH 5 0
BBX 5 9 0 -1
BITMAP
00
20
50
40
e0
40
40
b0
00
ENDCHAR
STARTCHAR 007F
ENCODING 164
SWIDTH 600 0
DWIDTH 5 0
BBX 5 9 0 -1
BITMAP
00
00
00
88
70
50
70
88
00
ENDCHAR
STARTCHAR 0080
ENCODING 165
SWIDTH 600 0
DWIDTH 5 0
BBX 5 9 0 -1
BITMAP
00
88
50
20
f8
20
f8
20
00
ENDCHAR
STARTCHAR 0081
ENCODING 166
SWIDTH 600 0
DWIDTH 5 0
BBX 5 9 0 -1
BITMAP
20
20
20
20
00
20
20
20
20
ENDCHAR
STARTCHAR 0082
ENCODING 167
SWIDTH 600 0
DWIDTH 5 0
BBX 5 9 0 -1
BITMAP
00
70
80
e0
90
70
10
e0
00
ENDCHAR
STARTCHAR 0083
ENCODING 168
SWIDTH 600 0
DWIDTH 5 0
BBX 5 9 0 -1
BITMAP
00
90
00
00
00
00
00
00
00
ENDCHAR
STARTCHAR 0084
ENCODING 169
SWIDTH 600 0
DWIDTH 5 0
BBX 5 9 0 -1
BITMAP
00
70
88
a8
c8
c8
a8
88
70
ENDCHAR
STARTCHAR 0085
ENCODING 170
SWIDTH 600 0
DWIDTH 5 0
BBX 5 9 0 -1
BITMAP
00
70
90
70
00
f0
00
00
00
ENDCHAR
STARTCHAR 0086
ENCODING 171
SWIDTH 600 0
DWIDTH 5 0
BBX 5 9 0 -1
BITMAP
00
00
00
00
50
a0
50
00
00
ENDCHAR
STARTCHAR 0087
ENCODING 172
SWIDTH 600 0
DWIDTH 5 0
BBX 5 9 0 -1
BITMAP
00
00
00
00
00
f0
10
10
00
ENDCHAR
STARTCHAR 0088
ENCODING 173
SWIDTH 600 0
DWIDTH 5 0
BBX 5 9 0 -1
BITMAP
00
00
00
00
00
70
00
00
00
ENDCHAR
STARTCHAR 0089
ENCODING 174
SWIDTH 600 0
DWIDTH 5 0
BBX 5 9 0 -1
BITMAP
00
70
88
e8
d8
e8
d8
88
70
ENDCHAR
STARTCHAR 008A
ENCODING 175
SWIDTH 600 0
DWIDTH 5 0
BBX 5 9 0 -1
BITMAP
00
70
00
00
00
00
00
00
00
ENDCHAR
STARTCHAR 008B
ENCODING 176
SWIDTH 600 0
DWIDTH 5 0
BBX 5 9 0 -1
BITMAP
00
60
90
60
00
00
00
00
00
ENDCHAR
STARTCHAR 008C
ENCODING 177
SWIDTH 600 0
DWIDTH 5 0
BBX 5 9 0 -1
BITMAP
00
00
20
70
20
00
70
00
00
ENDCHAR
STARTCHAR 008D
ENCODING 178
SWIDTH 600 0
DWIDTH 5 0
BBX 5 9 0 -1
BITMAP
00
60
10
60
40
70
00
00
00
ENDCHAR
STARTCHAR 008E
ENCODING 179
SWIDTH 600 0
DWIDTH 5 0
BBX 5 9 0 -1
BITMAP
00
60
10
60
10
60
00
00
00
ENDCHAR
STARTCHAR 008F
ENCODING 180
SWIDTH 600 0
DWIDTH 5 0
BBX 5 9 0 -1
BITMAP
20
40
00
00
00
00
00
00
00
ENDCHAR
STARTCHAR 0090
ENCODING 181
SWIDTH 600 0
DWIDTH 5 0
BBX 5 9 0 -1
BITMAP
00
00
00
00
90
90
90
e0
80
ENDCHAR
STARTCHAR 0091
ENCODING 182
SWIDTH 600 0
DWIDTH 5 0
BBX 5 9 0 -1
BITMAP
00
78
e8
e8
68
28
28
28
00
ENDCHAR
STARTCHAR 0092
ENCODING 183
SWIDTH 600 0
DWIDTH 5 0
BBX 5 9 0 -1
BITMAP
00
00
00
00
00
20
00
00
00
ENDCHAR
STARTCHAR 0093
ENCODING 184
SWIDTH 600 0
DWIDTH 5 0
BBX 5 9 0 -1
BITMAP
00
00
00
00
00
00
00
20
40
ENDCHAR
STARTCHAR 0094
ENCODING 185
SWIDTH 600 0
DWIDTH 5 0
BBX 5 9 0 -1
BITMAP
00
20
60
20
20
70
00
00
00
ENDCHAR
STARTCHAR 0095
ENCODING 186
SWIDTH 600 0
DWIDTH 5 0
BBX 5 9 0 -1
BITMAP
00
60
90
60
00
f0
00
00
00
ENDCHAR
STARTCHAR 0096
ENCODING 187
SWIDTH 600 0
DWIDTH 5 0
BBX 5 9 0 -1
BITMAP
00
00
00
00
a0
50
a0
00
00
ENDCHAR
STARTCHAR 0097
ENCODING 188
SWIDTH 600 0
DWIDTH 5 0
BBX 5 9 0 -1
BITMAP
00
80
80
80
a0
60
f0
20
00
ENDCHAR
STARTCHAR 0098
ENCODING 189
SWIDTH 600 0
DWIDTH 5 0
BBX 5 9 0 -1
BITMAP
00
80
80
a0
d0
10
20
70
00
ENDCHAR
STARTCHAR 0099
ENCODING 190
SWIDTH 600 0
DWIDTH 5 0
BBX 5 9 0 -1
BITMAP
00
80
40
80
60
a0
f0
20
00
ENDCHAR
STARTCHAR 009A
ENCODING 191
SWIDTH 600 0
DWIDTH 5 0
BBX 5 9 0 -1
BITMAP
00
20
00
20
20
40
50
20
00
ENDCHAR
STARTCHAR 009B
ENCODING 192
SWIDTH 600 0
DWIDTH 5 0
BBX 5 9 0 -1
BITMAP
40
20
00
60
90
f0
90
90
00
ENDCHAR
STARTCHAR 009C
ENCODING 193
SWIDTH 600 0
DWIDTH 5 0
BBX 5 9 0 -1
BITMAP
20
40
00
60
90
f0
90
90
00
ENDCHAR
STARTCHAR 009D
ENCODING 194
SWIDTH 600 0
DWIDTH 5 0
BBX 5 9 0 -1
BITMAP
60
90
00
60
90
f0
90
90
00
ENDCHAR
STARTCHAR 009E
ENCODING 195
SWIDTH 600 0
DWIDTH 5 0
BBX 5 9 0 -1
BITMAP
50
a0
00
60
90
f0
90
90
00
ENDCHAR
STARTCHAR 009F
ENCODING 196
SWIDTH 600 0
DWIDTH 5 0
BBX 5 9 0 -1
BITMAP
90
00
60
90
90
f0
90
90
00
ENDCHAR
STARTCHAR 00A0
ENCODING 197
SWIDTH 600 0
DWIDTH 5 0
BBX 5 9 0 -1
BITMAP
60
90
60
60
90
f0
90
90
00
ENDCHAR
STARTCHAR 00A1
ENCODING 198
SWIDTH 600 0
DWIDTH 5 0
BBX 5 9 0 -1
BITMAP
00
70
a0
a0
f0
a0
a0
b0
00
ENDCHAR
STARTCHAR 00A2
ENCODING 199
SWIDTH 600 0
DWIDTH 5 0
BBX 5 9 0 -1
BITMAP
00
60
90
80
80
80
90
60
20
ENDCHAR
STARTCHAR 00A3
ENCODING 200
SWIDTH 600 0
DWIDTH 5 0
BBX 5 9 0 -1
BITMAP
40
20
00
f0
80
e0
80
f0
00
ENDCHAR
STARTCHAR 00A4
ENCODING 201
SWIDTH 600 0
DWIDTH 5 0
BBX 5 9 0 -1
BITMAP
20
40
00
f0
80
e0
80
f0
00
ENDCHAR
STARTCHAR 00A5
ENCODING 202
SWIDTH 600 0
DWIDTH 5 0
BBX 5 9 0 -1
BITMAP
60
90
00
f0
80
e0
80
f0
00
ENDCHAR
STARTCHAR 00A6
ENCODING 203
SWIDTH 600 0
DWIDTH 5 0
BBX 5 9 0 -1
BITMAP
90
00
f0
80
e0
80
80
f0
00
ENDCHAR
STARTCHAR 00A7
ENCODING 204
SWIDTH 600 0
DWIDTH 5 0
BBX 5 9 0 -1
BITMAP
40
20
00
70
20
20
20
70
00
ENDCHAR
STARTCHAR 00A8
ENCODING 205
SWIDTH 600 0
DWIDTH 5 0
BBX 5 9 0 -1
BITMAP
10
20
00
70
20
20
20
70
00
ENDCHAR
STARTCHAR 00A9
ENCODING 206
SWIDTH 600 0
DWIDTH 5 0
BBX 5 9 0 -1
BITMAP
20
50
00
70
20
20
20
70
00
ENDCHAR
STARTCHAR 00AA
ENCODING 207
SWIDTH 600 0
DWIDTH 5 0
BBX 5 9 0 -1
BITMAP
50
00
70
20
20
20
20
70
00
ENDCHAR
STARTCHAR 00AB
ENCODING 208
SWIDTH 600 0
DWIDTH 5 0
BBX 5 9 0 -1
BITMAP
00
00
70
48
e8
48
48
70
00
ENDCHAR
STARTCHAR 00AC
ENCODING 209
SWIDTH 600 0
DWIDTH 5 0
BBX 5 9 0 -1
BITMAP
50
a0
00
90
d0
b0
90
90
00
ENDCHAR
STARTCHAR 00AD
ENCODING 210
SWIDTH 600 0
DWIDTH 5 0
BBX 5 9 0 -1
BITMAP
40
20
60
90
90
90
90
60
00
ENDCHAR
STARTCHAR 00AE
ENCODING 211
SWIDTH 600 0
DWIDTH 5 0
BBX 5 9 0 -1
BITMAP
20
40
60
90
90
90
90
60
00
ENDCHAR
STARTCHAR 00AF
ENCODING 212
SWIDTH 600 0
DWIDTH 5 0
BBX 5 9 0 -1
BITMAP
60
90
00
60
90
90
90
60
00
ENDCHAR
STARTCHAR 00B0
ENCODING 213
SWIDTH 600 0
DWIDTH 5 0
BBX 5 9 0 -1
BITMAP
50
a0
00
60
90
90
90
60
00
ENDCHAR
STARTCHAR 00B1
ENCODING 214
SWIDTH 600 0
DWIDTH 5 0
BBX 5 9 0 -1
BITMAP
90
00
60
90
90
90
90
60
00
ENDCHAR
STARTCHAR 00B2
ENCODING 215
SWIDTH 600 0
DWIDTH 5 0
BBX 5 9 0 -1
BITMAP
00
00
00
90
60
60
90
00
00
ENDCHAR
STARTCHAR 00B3
ENCODING 216
SWIDTH 600 0
DWIDTH 5 0
BBX 5 9 0 -1
BITMAP
00
10
60
b0
b0
d0
d0
60
80
ENDCHAR
STARTCHAR 00B4
ENCODING 217
SWIDTH 600 0
DWIDTH 5 0
BBX 5 9 0 -1
BITMAP
40
20
00
90
90
90
90
60
00
ENDCHAR
STARTCHAR 00B5
ENCODING 218
SWIDTH 600 0
DWIDTH 5 0
BBX 5 9 0 -1
BITMAP
20
40
00
90
90
90
90
60
00
ENDCHAR
STARTCHAR 00B6
ENCODING 219
SWIDTH 600 0
DWIDTH 5 0
BBX 5 9 0 -1
BITMAP
60
90
00
90
90
90
90
60
00
ENDCHAR
STARTCHAR 00B7
ENCODING 220
SWIDTH 600 0
DWIDTH 5 0
BBX 5 9 0 -1
BITMAP
90
00
90
90
90
90
90
60
00
ENDCHAR
STARTCHAR 00B8
ENCODING 221
SWIDTH 600 0
DWIDTH 5 0
BBX 5 9 0 -1
BITMAP
10
20
88
88
50
20
20
20
00
ENDCHAR
STARTCHAR 00B9
ENCODING 222
SWIDTH 600 0
DWIDTH 5 0
BBX 5 9 0 -1
BITMAP
00
80
80
e0
90
e0
80
80
00
ENDCHAR
STARTCHAR 00BA
ENCODING 223
SWIDTH 600 0
DWIDTH 5 0
BBX 5 9 0 -1
BITMAP
00
60
90
90
a0
90
90
a0
00
ENDCHAR
STARTCHAR 00BB
ENCODING 224
SWIDTH 600 0
DWIDTH 5 0
BBX 5 9 0 -1
BITMAP
40
20
00
70
90
90
90
70
00
ENDCHAR
STARTCHAR 00BC
ENCODING 225
SWIDTH 600 0
DWIDTH 5 0
BBX 5 9 0 -1
BITMAP
20
40
00
70
90
90
90
70
00
ENDCHAR
STARTCHAR 00BD
ENCODING 226
SWIDTH 600 0
DWIDTH 5 0
BBX 5 9 0 -1
BITMAP
20
50
00
70
90
90
90
70
00
ENDCHAR
STARTCHAR 00BE
ENCODING 227
SWIDTH 600 0
DWIDTH 5 0
BBX 5 9 0 -1
BITMAP
50
a0
00
70
90
90
90
70
00
ENDCHAR
STARTCHAR 00BF
ENCODING 228
SWIDTH 600 0
DWIDTH 5 0
BBX 5 9 0 -1
BITMAP
00
00
50
00
70
90
90
70
00
ENDCHAR
STARTCHAR 00C0
ENCODING 229
SWIDTH 600 0
DWIDTH 5 0
BBX 5 9 0 -1
BITMAP
00
60
90
60
70
90
90
70
00
ENDCHAR
STARTCHAR 00C1
ENCODING 230
SWIDTH 600 0
DWIDTH 5 0
BBX 5 9 0 -1
BITMAP
00
00
00
70
a8
b0
a0
78
00
ENDCHAR
STARTCHAR 00C2
ENCODING 231
SWIDTH 600 0
DWIDTH 5 0
BBX 5 9 0 -1
BITMAP
00
00
00
70
80
80
70
20
40
ENDCHAR
STARTCHAR 00C3
ENCODING 232
SWIDTH 600 0
DWIDTH 5 0
BBX 5 9 0 -1
BITMAP
40
20
00
60
90
e0
80
70
00
ENDCHAR
STARTCHAR 00C4
ENCODING 233
SWIDTH 600 0
DWIDTH 5 0
BBX 5 9 0 -1
BITMAP
20
40
00
60
90
e0
80
70
00
ENDCHAR
STARTCHAR 00C5
ENCODING 234
SWIDTH 600 0
DWIDTH 5 0
BBX 5 9 0 -1
BITMAP
60
90
00
60
90
e0
80
70
00
ENDCHAR
STARTCHAR 00C6
ENCODING 235
SWIDTH 600 0
DWIDTH 5 0
BBX 5 9 0 -1
BITMAP
00
50
00
60
90
e0
80
70
00
ENDCHAR
STARTCHAR 00C7
ENCODING 236
SWIDTH 600 0
DWIDTH 5 0
BBX 5 9 0 -1
BITMAP
40
20
00
60
20
20
20
70
00
ENDCHAR
STARTCHAR 00C8
ENCODING 237
SWIDTH 600 0
DWIDTH 5 0
BBX 5 9 0 -1
BITMAP
10
20
00
60
20
20
20
70
00
ENDCHAR
STARTCHAR 00C9
ENCODING 238
SWIDTH 600 0
DWIDTH 5 0
BBX 5 9 0 -1
BITMAP
20
50
00
60
20
20
20
70
00
ENDCHAR
STARTCHAR 00CA
ENCODING 239
SWIDTH 600 0
DWIDTH 5 0
BBX 5 9 0 -1
BITMAP
00
50
00
60
20
20
20
70
00
ENDCHAR
STARTCHAR 00CB
ENCODING 240
SWIDTH 600 0
DWIDTH 5 0
BBX 5 9 0 -1
BITMAP
00
a0
40
a0
10
70
90
60
00
ENDCHAR
STARTCHAR 00CC
ENCODING 241
SWIDTH 600 0
DWIDTH 5 0
BBX 5 9 0 -1
BITMAP
50
a0
00
e0
90
90
90
90
00
ENDCHAR
STARTCHAR 00CD
ENCODING 242
SWIDTH 600 0
DWIDTH 5 0
BBX 5 9 0 -1
BITMAP
40
20
00
60
90
90
90
60
00
ENDCHAR
STARTCHAR 00CE
ENCODING 243
SWIDTH 600 0
DWIDTH 5 0
BBX 5 9 0 -1
BITMAP
20
40
00
60
90
90
90
60
00
ENDCHAR
STARTCHAR 00CF
ENCODING 244
SWIDTH 600 0
DWIDTH 5 0
BBX 5 9 0 -1
BITMAP
60
90
00
60
90
90
90
60
00
ENDCHAR
STARTCHAR 00D0
ENCODING 245
SWIDTH 600 0
DWIDTH 5 0
BBX 5 9 0 -1
BITMAP
50
a0
00
60
90
90
90
60
00
ENDCHAR
STARTCHAR 00D1
ENCODING 246
SWIDTH 600 0
DWIDTH 5 0
BBX 5 9 0 -1
BITMAP
00
90
00
60
90
90
90
60
00
ENDCHAR
STARTCHAR 00D2
ENCODING 247
SWIDTH 600 0
DWIDTH 5 0
BBX 5 9 0 -1
BITMAP
00
00
00
20
00
70
00
20
00
ENDCHAR
STARTCHAR 00D3
ENCODING 248
SWIDTH 600 0
DWIDTH 5 0
BBX 5 9 0 -1
BITMAP
00
00
10
70
b0
f0
d0
e0
80
ENDCHAR
STARTCHAR 00D4
ENCODING 249
SWIDTH 600 0
DWIDTH 5 0
BBX 5 9 0 -1
BITMAP
40
20
00
90
90
90
90
70
00
ENDCHAR
STARTCHAR 00D5
ENCODING 250
SWIDTH 600 0
DWIDTH 5 0
BBX 5 9 0 -1
BITMAP
20
40
00
90
90
90
90
70
00
ENDCHAR
STARTCHAR 00D6
ENCODING 251
SWIDTH 600 0
DWIDTH 5 0
BBX 5 9 0 -1
BITMAP
60
90
00
90
90
90
90
70
00
ENDCHAR
STARTCHAR 00D7
ENCODING 252
SWIDTH 600 0
DWIDTH 5 0
BBX 5 9 0 -1
BITMAP
00
90
00
90
90
90
90
70
00
ENDCHAR
STARTCHAR 00D8
ENCODING 253
SWIDTH 600 0
DWIDTH 5 0
BBX 5 9 0 -1
BITMAP
20
40
00
90
90
90
90
70
10
ENDCHAR
STARTCHAR 00D9
ENCODING 254
SWIDTH 600 0
DWIDTH 5 0
BBX 5 9 0 -1
BITMAP
00
00
80
80
e0
90
e0
80
80
ENDCHAR
STARTCHAR 00DA
ENCODING 255
SWIDTH 600 0
DWIDTH 5 0
BBX 5 9 0 -1
BITMAP
00
00
90
00
90
90
70
10
e0
ENDCHAR
ENDFONT
